<?xml version="1.0" standalone="no"?>
<!DOCTYPE svg PUBLIC "-//W3C//DTD SVG 20010904//EN"
 "http://www.w3.org/TR/2001/REC-SVG-20010904/DTD/svg10.dtd">
<svg version="1.0" xmlns="http://www.w3.org/2000/svg"
 width="36pt" height="32pt" viewBox="0 0 120.000000 107.000000"
 preserveAspectRatio="xMidYMid meet">

<g transform="translate(0.000000,107.000000) scale(0.100000,-0.100000)"
 fill="rgb(240,0,0)" stroke="black" stroke-width="5">
<path d="M336 1054 c-9 -8 -16 -21 -16 -29 0 -7 38 -53 85 -101 47 -49 88
-100 93 -114 4 -14 7 -55 7 -91 0 -61 -5 -74 -64 -191 -64 -125 -69 -152 -35
-165 28 -11 45 9 104 122 32 60 65 114 74 120 28 17 48 -6 111 -126 51 -97 64
-114 84 -114 13 0 29 8 35 17 8 14 -1 40 -46 130 -72 144 -82 181 -74 252 8
62 39 107 135 201 28 27 51 55 51 61 0 15 -28 44 -42 44 -6 0 -51 -39 -101
-87 -50 -49 -83 -77 -74 -63 25 36 21 77 -9 107 -21 21 -32 24 -61 20 -19 -3
-41 -11 -48 -17 -23 -19 -28 -67 -11 -102 13 -24 -6 -10 -72 55 -49 48 -94 87
-100 87 -6 0 -18 -7 -26 -16z"/>
<path d="M67 759 c-70 -53 -73 -114 -12 -240 25 -51 45 -105 45 -119 0 -16
-12 -40 -30 -58 -34 -36 -36 -45 -15 -66 12 -11 27 -14 58 -10 53 7 70 -9 125
-121 22 -44 51 -91 65 -104 48 -44 167 -37 182 11 11 34 -12 48 -74 45 l-56
-2 -52 99 c-48 91 -91 145 -118 146 -5 0 -10 26 -10 58 0 47 -8 73 -42 145
-24 49 -43 97 -43 108 0 10 14 31 30 46 32 28 38 51 18 71 -17 17 -39 14 -71
-9z"/>
<path d="M1062 768 c-20 -20 -14 -42 18 -73 17 -16 30 -39 30 -52 0 -13 -19
-60 -42 -104 -36 -69 -43 -90 -43 -140 0 -45 -4 -60 -16 -64 -30 -10 -74 -66
-119 -153 l-45 -87 -57 0 c-63 0 -83 -12 -73 -45 8 -26 42 -40 97 -40 66 0 93
24 149 132 57 113 80 133 138 123 33 -5 41 -3 50 14 15 27 15 26 -19 61 -41
42 -39 70 15 178 50 101 56 148 25 199 -17 29 -65 63 -88 63 -4 0 -13 -5 -20
-12z"/>
</g>
</svg>
